<svg xmlns="http://www.w3.org/2000/svg" version="1.1" xmlns:xlink="http://www.w3.org/1999/xlink" xmlns:svgjs="http://svgjs.com/svgjs" width="1024.000000pt" height="1024.000000pt"><svg version="1.0" xmlns="http://www.w3.org/2000/svg" width="1024.000000pt" height="1024.000000pt" viewBox="0 0 1024.000000 1024.000000" preserveAspectRatio="xMidYMid meet">
<metadata>
Created by potrace 1.14, written by Peter Selinger 2001-2017
</metadata>
<g transform="translate(0.000000,1024.000000) scale(0.100000,-0.100000)" fill="#000000" stroke="none">
<path d="M6247 9902 c-66 -70 -474 -482 -908 -917 l-788 -789 127 -67 c70 -36
147 -77 172 -91 25 -14 117 -66 205 -115 88 -50 286 -161 440 -248 336 -188
341 -192 525 -292 80 -44 198 -110 264 -147 65 -36 120 -66 122 -66 2 0 4 644
4 1430 l0 1430 -22 -1 c-16 -1 -61 -41 -141 -127z"></path>
<path d="M1505 9993 c4 -16 20 -102 36 -193 16 -91 38 -212 50 -270 11 -58 26
-134 33 -170 7 -36 56 -279 109 -540 166 -830 203 -1020 261 -1335 31 -169 60
-322 102 -540 7 -38 22 -117 33 -175 52 -273 60 -318 70 -360 5 -25 13 -67 16
-95 4 -27 10 -66 15 -85 5 -19 16 -75 24 -125 15 -88 65 -345 85 -435 10 -47
36 -184 96 -505 20 -104 43 -221 51 -260 8 -38 19 -95 25 -126 5 -31 21 -112
35 -180 14 -68 45 -218 69 -334 24 -115 55 -268 70 -340 15 -71 34 -143 42
-159 8 -15 103 -126 210 -245 108 -119 231 -254 273 -301 197 -219 394 -436
404 -445 7 -5 63 -66 126 -135 63 -69 139 -152 170 -185 31 -33 88 -93 126
-134 38 -41 92 -98 119 -126 28 -28 97 -102 155 -165 58 -62 128 -137 155
-165 28 -28 91 -96 140 -150 50 -55 113 -122 140 -150 49 -50 270 -285 353
-375 l41 -45 1 40 c0 22 -7 86 -15 142 -8 56 -21 178 -30 270 -8 92 -20 206
-25 253 -6 47 -14 141 -19 210 -9 117 -41 479 -76 845 -8 88 -19 225 -25 305
-6 80 -17 208 -25 285 -8 77 -21 226 -30 330 -9 105 -18 206 -20 225 -5 33
-24 243 -46 485 -5 61 -16 169 -23 240 -8 72 -17 171 -21 220 -3 50 -10 126
-15 170 -5 44 -14 134 -19 200 -6 66 -17 199 -26 295 -8 96 -22 254 -30 350
-9 96 -26 294 -40 440 -13 146 -33 380 -44 520 -12 140 -25 302 -31 360 -5 58
-19 227 -30 375 -11 149 -23 315 -28 369 l-7 99 -80 24 c-44 13 -154 43 -245
67 -91 25 -262 72 -380 106 -118 34 -321 91 -450 127 -375 105 -324 79 -446
228 -58 72 -167 207 -242 300 -75 94 -192 238 -260 320 -67 83 -136 166 -151
185 -16 19 -68 82 -116 140 -89 108 -146 178 -235 288 l-51 62 -180 0 -181 0
7 -27z"></path>
<path d="M1428 8657 c-56 -44 -349 -248 -675 -469 -194 -132 -344 -235 -431
-296 l-92 -65 3 -1911 c2 -1432 6 -1927 15 -1976 13 -68 22 -130 72 -500 17
-124 46 -336 65 -472 19 -136 35 -263 35 -282 0 -32 5 -38 78 -82 327 -199
877 -550 1479 -942 71 -46 196 -126 278 -179 171 -110 248 -159 465 -301 85
-56 207 -135 270 -176 247 -159 550 -357 758 -494 119 -79 262 -172 318 -207
l101 -65 494 0 494 0 40 48 c23 26 62 74 87 107 72 95 56 91 230 55 140 -29
299 -66 388 -89 71 -19 208 -51 340 -80 l135 -29 639 -5 c606 -5 644 -4 740
14 55 11 181 33 280 48 l178 29 117 119 c156 159 692 686 814 799 111 103 111
94 -3 109 -25 3 -94 15 -155 25 -99 18 -365 61 -660 108 l-110 17 -12 50 c-7
28 -28 109 -47 180 -18 72 -61 243 -94 380 -33 138 -83 342 -111 455 -27 113
-62 255 -76 315 -14 61 -39 164 -55 230 -16 66 -31 136 -35 155 -4 19 -15 71
-25 115 -10 44 -24 106 -30 138 l-12 59 -51 -7 c-29 -4 -92 -15 -142 -25 -49
-11 -144 -29 -210 -41 -208 -37 -529 -99 -565 -109 -68 -18 -302 -61 -307 -56
-12 12 30 56 209 217 168 151 333 302 486 443 23 22 41 44 40 48 -5 13 -149
76 -423 185 -416 166 -603 238 -1040 405 -151 57 -342 139 -361 154 -17 14 -8
15 91 9 116 -6 416 -43 625 -76 69 -11 231 -35 360 -54 400 -57 582 -84 650
-95 287 -47 375 -60 380 -58 7 3 -111 248 -473 978 -599 1209 -666 1340 -674
1328 -4 -7 -24 -44 -44 -83 -20 -38 -78 -144 -129 -235 -98 -175 -122 -219
-245 -450 -42 -80 -81 -149 -85 -155 -4 -5 -36 -64 -70 -130 -35 -66 -74 -140
-88 -165 -161 -288 -314 -573 -349 -650 l-44 -95 5 -735 c7 -825 15 -1496 26
-2045 4 -203 8 -541 9 -750 1 -209 3 -476 5 -592 3 -158 1 -213 -7 -212 -7 1
-46 38 -86 83 -75 81 -243 256 -565 586 -94 96 -251 258 -350 360 -331 339
-655 669 -1406 1428 -410 415 -748 761 -752 770 -4 9 -14 80 -24 157 -22 185
-40 332 -54 430 -21 154 -59 441 -75 570 -19 157 -87 717 -115 945 -55 447
-74 604 -120 950 -46 351 -99 786 -120 980 -6 47 -16 132 -25 190 -8 58 -24
184 -35 280 -37 310 -41 344 -52 393 -5 26 -13 47 -16 47 -4 -1 -37 -24 -74
-53z"></path>
<path d="M5190 7200 c0 -5 -6 -10 -13 -10 -30 0 -39 -40 -33 -149 6 -104 20
-576 31 -1026 3 -126 8 -268 11 -315 l6 -85 32 39 c17 22 95 118 174 215 79
97 156 191 170 210 15 18 97 118 182 221 85 103 203 248 263 321 59 74 137
166 173 204 51 56 61 71 47 74 -10 2 -83 25 -163 51 -80 27 -179 58 -220 69
-79 21 -151 42 -290 86 -47 15 -98 30 -115 35 -16 4 -68 19 -115 32 -123 36
-140 40 -140 28z"></path>
<path d="M9885 4647 c-66 -61 -155 -143 -197 -180 -42 -37 -89 -80 -105 -95
-68 -63 -133 -121 -213 -192 -93 -82 -244 -217 -390 -349 -133 -121 -206 -186
-290 -261 -41 -36 -106 -94 -145 -130 -39 -36 -91 -83 -116 -105 -24 -22 -73
-67 -109 -100 -36 -33 -96 -87 -134 -119 l-68 -60 7 -45 c8 -57 89 -375 147
-580 40 -139 47 -156 69 -161 13 -4 91 -52 173 -106 199 -133 281 -186 341
-223 28 -17 100 -65 160 -108 158 -110 309 -212 311 -210 5 6 80 195 109 272
18 50 47 126 64 170 18 44 52 136 78 205 25 69 61 168 80 220 73 194 95 256
103 280 16 46 57 154 120 310 34 85 70 180 80 210 10 30 25 71 33 90 12 29 15
152 21 708 3 369 3 672 -2 672 -4 0 -61 -51 -127 -113z"></path>
</g>
</svg><style>@media (prefers-color-scheme: light) { :root { filter: contrast(1) brightness(0.5); } }
</style></svg>